<?xml version="1.0" encoding="UTF-8"?>
<!DOCTYPE svg PUBLIC "-//W3C//DTD SVG 1.1//EN" "http://www.w3.org/Graphics/SVG/1.1/DTD/svg11.dtd">
<svg xmlns="http://www.w3.org/2000/svg" xmlns:xlink="http://www.w3.org/1999/xlink" version="1.1" width="762px" height="463px" viewBox="-0.5 -0.5 762 463"><defs><clipPath id="mx-clip-4-221-532-26-0"><rect x="4" y="221" width="532" height="26"/></clipPath><clipPath id="mx-clip-4-247-532-26-0"><rect x="4" y="247" width="532" height="26"/></clipPath><clipPath id="mx-clip-4-273-532-26-0"><rect x="4" y="273" width="532" height="26"/></clipPath><clipPath id="mx-clip-4-299-532-26-0"><rect x="4" y="299" width="532" height="26"/></clipPath><clipPath id="mx-clip-4-333-532-26-0"><rect x="4" y="333" width="532" height="26"/></clipPath><clipPath id="mx-clip-4-359-532-26-0"><rect x="4" y="359" width="532" height="26"/></clipPath><clipPath id="mx-clip-4-385-532-26-0"><rect x="4" y="385" width="532" height="26"/></clipPath><clipPath id="mx-clip-4-411-532-26-0"><rect x="4" y="411" width="532" height="26"/></clipPath><clipPath id="mx-clip-4-437-532-26-0"><rect x="4" y="437" width="532" height="26"/></clipPath><clipPath id="mx-clip-444-31-312-26-0"><rect x="444" y="31" width="312" height="26"/></clipPath><clipPath id="mx-clip-444-65-312-26-0"><rect x="444" y="65" width="312" height="26"/></clipPath><clipPath id="mx-clip-444-91-312-26-0"><rect x="444" y="91" width="312" height="26"/></clipPath><clipPath id="mx-clip-444-117-312-26-0"><rect x="444" y="117" width="312" height="26"/></clipPath><clipPath id="mx-clip-444-143-312-26-0"><rect x="444" y="143" width="312" height="26"/></clipPath></defs><g><path d="M 0 216 L 0 190 L 540 190 L 540 216" fill="rgb(255, 255, 255)" stroke="rgb(0, 0, 0)" stroke-miterlimit="10" pointer-events="all"/><path d="M 0 216 L 0 458 L 540 458 L 540 216" fill="none" stroke="rgb(0, 0, 0)" stroke-miterlimit="10" pointer-events="none"/><path d="M 0 216 L 540 216" fill="none" stroke="rgb(0, 0, 0)" stroke-miterlimit="10" pointer-events="none"/><g fill="rgb(0, 0, 0)" font-family="Helvetica" font-weight="bold" pointer-events="none" text-anchor="middle" font-size="12px"><text x="269.5" y="207.5">EquityUpdater</text></g><g fill="rgb(0, 0, 0)" font-family="Helvetica" pointer-events="none" clip-path="url(#mx-clip-4-221-532-26-0)" font-size="12px"><text x="5.5" y="233.5">- equityIsins: pd.DataFrame</text></g><g fill="rgb(0, 0, 0)" font-family="Helvetica" pointer-events="none" clip-path="url(#mx-clip-4-247-532-26-0)" font-size="12px"><text x="5.5" y="259.5">- logger: logger</text></g><g fill="rgb(0, 0, 0)" font-family="Helvetica" pointer-events="none" clip-path="url(#mx-clip-4-273-532-26-0)" font-size="12px"><text x="5.5" y="285.5">- beginDate: date</text></g><g fill="rgb(0, 0, 0)" font-family="Helvetica" pointer-events="none" clip-path="url(#mx-clip-4-299-532-26-0)" font-size="12px"><text x="5.5" y="311.5">- finnhubClient: Finnhub.Client</text></g><path d="M 0 324 L 540 324" fill="none" stroke="rgb(0, 0, 0)" stroke-miterlimit="10" pointer-events="none"/><g fill="rgb(0, 0, 0)" font-family="Helvetica" pointer-events="none" clip-path="url(#mx-clip-4-333-532-26-0)" font-size="12px"><text x="5.5" y="345.5">- getMostRecentEntryDate(ticker: str): date</text></g><g fill="rgb(0, 0, 0)" font-family="Helvetica" pointer-events="none" clip-path="url(#mx-clip-4-359-532-26-0)" font-size="12px"><text x="5.5" y="371.5">- queryEquityData(ticker: str): pd.DataFrame</text></g><g fill="rgb(0, 0, 0)" font-family="Helvetica" pointer-events="none" clip-path="url(#mx-clip-4-385-532-26-0)" font-size="12px"><text x="5.5" y="397.5">- insertDataInDb(ticker: str, data: pd.DataFrame)</text></g><g fill="rgb(0, 0, 0)" font-family="Helvetica" pointer-events="none" clip-path="url(#mx-clip-4-411-532-26-0)" font-size="12px"><text x="5.5" y="423.5">+ updateEquities()</text></g><g fill="rgb(0, 0, 0)" font-family="Helvetica" pointer-events="none" clip-path="url(#mx-clip-4-437-532-26-0)" font-size="12px"><text x="5.5" y="449.5">+ &lt;&lt;create&gt;&gt; StockUpdater(equityIsins: path, finnhubApiKey: str, logger: logger)</text></g><path d="M 280.26 171.33 L 280.3 39 L 437.76 39" fill="none" stroke="rgb(0, 0, 0)" stroke-miterlimit="10" pointer-events="none"/><path d="M 280.26 186.33 L 275.85 178.83 L 280.26 171.33 L 284.67 178.83 Z" fill="rgb(0, 0, 0)" stroke="rgb(0, 0, 0)" stroke-miterlimit="10" pointer-events="none"/><path d="M 425.88 45.5 L 438.88 39 L 425.88 32.5" fill="none" stroke="rgb(0, 0, 0)" stroke-miterlimit="10" pointer-events="none"/><path d="M 440 26 L 440 0 L 760 0 L 760 26" fill="rgb(255, 255, 255)" stroke="rgb(0, 0, 0)" stroke-miterlimit="10" pointer-events="none"/><path d="M 440 26 L 440 164 L 760 164 L 760 26" fill="none" stroke="rgb(0, 0, 0)" stroke-miterlimit="10" pointer-events="none"/><path d="M 440 26 L 760 26" fill="none" stroke="rgb(0, 0, 0)" stroke-miterlimit="10" pointer-events="none"/><g fill="rgb(0, 0, 0)" font-family="Helvetica" font-weight="bold" pointer-events="none" text-anchor="middle" font-size="12px"><text x="599.5" y="17.5">IsinHandler</text></g><g fill="rgb(0, 0, 0)" font-family="Helvetica" pointer-events="none" clip-path="url(#mx-clip-444-31-312-26-0)" font-size="12px"><text x="445.5" y="43.5">- finnhubClient: Finnhub.Client</text></g><path d="M 440 56 L 760 56" fill="none" stroke="rgb(0, 0, 0)" stroke-miterlimit="10" pointer-events="none"/><g fill="rgb(0, 0, 0)" font-family="Helvetica" pointer-events="none" clip-path="url(#mx-clip-444-65-312-26-0)" font-size="12px"><text x="445.5" y="77.5">- deleteUnnamedColumns(df: pd.DataFrame): pd.DataFrame</text></g><g fill="rgb(0, 0, 0)" font-family="Helvetica" pointer-events="none" clip-path="url(#mx-clip-444-91-312-26-0)" font-size="12px"><text x="445.5" y="103.5">- getInfoFromIsin(isin: str): pd.DataFrame</text></g><g fill="rgb(0, 0, 0)" font-family="Helvetica" pointer-events="none" clip-path="url(#mx-clip-444-117-312-26-0)" font-size="12px"><text x="445.5" y="129.5">+ getTickerForIsin(isin: str): str</text></g><g fill="rgb(0, 0, 0)" font-family="Helvetica" pointer-events="none" clip-path="url(#mx-clip-444-143-312-26-0)" font-size="12px"><text x="445.5" y="155.5">+ &lt;&lt;create&gt;&gt; IsinHandler(finnhubApiKey: str)</text></g></g></svg>