<?xml version="1.0" encoding="UTF-8"?>
<!DOCTYPE svg PUBLIC "-//W3C//DTD SVG 1.1//EN" "http://www.w3.org/Graphics/SVG/1.1/DTD/svg11.dtd">
<svg xmlns="http://www.w3.org/2000/svg" xmlns:xlink="http://www.w3.org/1999/xlink" version="1.1" width="812px" height="577px" viewBox="-0.5 -0.5 812 577"><defs><clipPath id="mx-clip-290-239-126-26-0"><rect x="290" y="239" width="126" height="26"/></clipPath><clipPath id="mx-clip-290-273-126-44-0"><rect x="290" y="273" width="126" height="44"/></clipPath><clipPath id="mx-clip-394-499-119-39-0"><rect x="394" y="499" width="119" height="39"/></clipPath><clipPath id="mx-clip-394-538-119-39-0"><rect x="394" y="538" width="119" height="39"/></clipPath><clipPath id="mx-clip-654-213-152-26-0"><rect x="654" y="213" width="152" height="26"/></clipPath><clipPath id="mx-clip-654-247-152-57-0"><rect x="654" y="247" width="152" height="57"/></clipPath><clipPath id="mx-clip-654-434-152-26-0"><rect x="654" y="434" width="152" height="26"/></clipPath><clipPath id="mx-clip-654-468-152-57-0"><rect x="654" y="468" width="152" height="57"/></clipPath><clipPath id="mx-clip-4-384-184-26-0"><rect x="4" y="384" width="184" height="26"/></clipPath><clipPath id="mx-clip-4-410-184-52-0"><rect x="4" y="410" width="184" height="52"/></clipPath><clipPath id="mx-clip-277-31-152-26-0"><rect x="277" y="31" width="152" height="26"/></clipPath><clipPath id="mx-clip-277-65-152-83-0"><rect x="277" y="65" width="152" height="83"/></clipPath></defs><g><path d="M 286 234 L 286 208 L 420 208 L 420 234" fill="#f8cecc" stroke="#b85450" stroke-miterlimit="10" pointer-events="all"/><path d="M 286 234 L 286 312 L 420 312 L 420 234" fill="none" stroke="#b85450" stroke-miterlimit="10" pointer-events="none"/><path d="M 286 234 L 420 234" fill="none" stroke="#b85450" stroke-miterlimit="10" pointer-events="none"/><g fill="rgb(0, 0, 0)" font-family="Helvetica" font-weight="bold" pointer-events="none" text-anchor="middle" font-size="12px"><text x="352.5" y="225.5">Portfolio</text></g><g fill="rgb(0, 0, 0)" font-family="Helvetica" pointer-events="none" clip-path="url(#mx-clip-290-239-126-26-0)" text-anchor="middle" font-size="12px"><text x="352.5" y="251.5">&lt;&lt;core&gt;&gt;</text></g><path d="M 286 264 L 420 264" fill="none" stroke="#b85450" stroke-miterlimit="10" pointer-events="none"/><g fill="rgb(0, 0, 0)" font-family="Helvetica" pointer-events="none" clip-path="url(#mx-clip-290-273-126-44-0)" text-anchor="middle" font-size="12px"><text x="352.5" y="285.5">Manages a users </text><text x="352.5" y="299.5">investments</text></g><path d="M 453.5 455 L 453.5 383.5 L 352.9 383.5 L 352.87 317.97" fill="none" stroke="rgb(0, 0, 0)" stroke-miterlimit="10" pointer-events="none"/><path d="M 352.87 312.72 L 356.37 319.72 L 352.87 317.97 L 349.37 319.72 Z" fill="rgb(0, 0, 0)" stroke="rgb(0, 0, 0)" stroke-miterlimit="10" pointer-events="none"/><path d="M 390 494 L 390 455 L 517 455 L 517 494" fill="#ffe6cc" stroke="#d79b00" stroke-miterlimit="10" pointer-events="none"/><path d="M 390 494 L 390 572 L 517 572 L 517 494" fill="none" stroke="#d79b00" stroke-miterlimit="10" pointer-events="none"/><path d="M 390 494 L 517 494" fill="none" stroke="#d79b00" stroke-miterlimit="10" pointer-events="none"/><g fill="rgb(0, 0, 0)" font-family="Helvetica" font-weight="bold" pointer-events="none" text-anchor="middle" font-size="12px"><text x="453" y="479">Suggestions</text></g><rect x="390" y="494" width="127" height="39" fill="none" stroke="#ffb570" pointer-events="none"/><g fill="rgb(0, 0, 0)" font-family="Helvetica" pointer-events="none" clip-path="url(#mx-clip-394-499-119-39-0)" text-anchor="middle" font-size="12px"><text x="453" y="511.5">&lt;&lt;subdomain&gt;&gt;</text></g><g fill="rgb(0, 0, 0)" font-family="Helvetica" pointer-events="none" clip-path="url(#mx-clip-394-538-119-39-0)" text-anchor="middle" font-size="12px"><text x="453" y="550.5">Suggest new </text><text x="453" y="564.5">investments</text></g><path d="M 650 240.5 L 535 240.5 L 535 263.6 L 423.96 263.62" fill="none" stroke="rgb(0, 0, 0)" stroke-miterlimit="10" pointer-events="none"/><path d="M 418.71 263.62 L 425.71 260.11 L 423.96 263.62 L 425.71 267.11 Z" fill="rgb(0, 0, 0)" stroke="rgb(0, 0, 0)" stroke-miterlimit="10" pointer-events="none"/><path d="M 650 208 L 650 182 L 810 182 L 810 208" fill="#ffe6cc" stroke="#d79b00" stroke-miterlimit="10" pointer-events="none"/><path d="M 650 208 L 650 299 L 810 299 L 810 208" fill="none" stroke="#d79b00" stroke-miterlimit="10" pointer-events="none"/><path d="M 650 208 L 810 208" fill="none" stroke="#d79b00" stroke-miterlimit="10" pointer-events="none"/><g fill="rgb(0, 0, 0)" font-family="Helvetica" font-weight="bold" pointer-events="none" text-anchor="middle" font-size="12px"><text x="729.5" y="199.5">Visualization</text></g><g fill="rgb(0, 0, 0)" font-family="Helvetica" pointer-events="none" clip-path="url(#mx-clip-654-213-152-26-0)" text-anchor="middle" font-size="12px"><text x="729.5" y="225.5">&lt;&lt;subdomain&gt;&gt;</text></g><path d="M 650 238 L 810 238" fill="none" stroke="#d79b00" stroke-miterlimit="10" pointer-events="none"/><g fill="rgb(0, 0, 0)" font-family="Helvetica" pointer-events="none" clip-path="url(#mx-clip-654-247-152-57-0)" text-anchor="middle" font-size="12px"><text x="729.5" y="259.5">VIsualizes (potential)</text><text x="729.5" y="273.5">investments</text></g><path d="M 650 468 L 585 468 L 585 286.5 L 426.23 286.48" fill="none" stroke="rgb(0, 0, 0)" stroke-miterlimit="10" pointer-events="none"/><path d="M 420.98 286.48 L 427.98 282.98 L 426.23 286.48 L 427.98 289.98 Z" fill="rgb(0, 0, 0)" stroke="rgb(0, 0, 0)" stroke-miterlimit="10" pointer-events="none"/><path d="M 650 494 L 585 494 L 585 513.5 L 523.37 513.5" fill="none" stroke="rgb(0, 0, 0)" stroke-miterlimit="10" pointer-events="none"/><path d="M 518.12 513.5 L 525.12 510 L 523.37 513.5 L 525.12 517 Z" fill="rgb(0, 0, 0)" stroke="rgb(0, 0, 0)" stroke-miterlimit="10" pointer-events="none"/><path d="M 650 429 L 650 403 L 810 403 L 810 429" fill="#ffe6cc" stroke="#d79b00" stroke-miterlimit="10" pointer-events="none"/><path d="M 650 429 L 650 520 L 810 520 L 810 429" fill="none" stroke="#d79b00" stroke-miterlimit="10" pointer-events="none"/><path d="M 650 429 L 810 429" fill="none" stroke="#d79b00" stroke-miterlimit="10" pointer-events="none"/><g fill="rgb(0, 0, 0)" font-family="Helvetica" font-weight="bold" pointer-events="none" text-anchor="middle" font-size="12px"><text x="729.5" y="420.5">Risk</text></g><g fill="rgb(0, 0, 0)" font-family="Helvetica" pointer-events="none" clip-path="url(#mx-clip-654-434-152-26-0)" text-anchor="middle" font-size="12px"><text x="729.5" y="446.5">&lt;&lt;subdomain&gt;&gt;</text></g><path d="M 650 459 L 810 459" fill="none" stroke="#d79b00" stroke-miterlimit="10" pointer-events="none"/><g fill="rgb(0, 0, 0)" font-family="Helvetica" pointer-events="none" clip-path="url(#mx-clip-654-468-152-57-0)" text-anchor="middle" font-size="12px"><text x="729.5" y="480.5">Calculates risk for </text><text x="729.5" y="494.5">investments</text></g><path d="M 96 353 L 96 264 L 286 264" fill="none" stroke="rgb(0, 0, 0)" stroke-miterlimit="10" pointer-events="none"/><path d="M 96 457 L 96 513.5 L 390 513.5" fill="none" stroke="rgb(0, 0, 0)" stroke-miterlimit="10" pointer-events="none"/><path d="M 0 379 L 0 353 L 192 353 L 192 379" fill="#d5e8d4" stroke="#82b366" stroke-miterlimit="10" pointer-events="none"/><path d="M 0 379 L 0 457 L 192 457 L 192 379" fill="none" stroke="#82b366" stroke-miterlimit="10" pointer-events="none"/><path d="M 0 379 L 192 379" fill="none" stroke="#82b366" stroke-miterlimit="10" pointer-events="none"/><g fill="rgb(0, 0, 0)" font-family="Helvetica" pointer-events="none" text-anchor="middle" font-size="12px"><text x="95.5" y="370.5">Data Management</text></g><g fill="rgb(0, 0, 0)" font-family="Helvetica" pointer-events="none" clip-path="url(#mx-clip-4-384-184-26-0)" text-anchor="middle" font-size="12px"><text x="95.5" y="396.5">&lt;&lt;supporting&gt;&gt;</text></g><g fill="rgb(0, 0, 0)" font-family="Helvetica" pointer-events="none" clip-path="url(#mx-clip-4-410-184-52-0)" text-anchor="middle" font-size="12px"><text x="95.5" y="422.5">Keep track of user data,</text><text x="95.5" y="436.5">user investments and</text><text x="95.5" y="450.5">keep stock data up-to-date</text></g><path d="M 353 143 L 353 208" fill="none" stroke="rgb(0, 0, 0)" stroke-miterlimit="10" pointer-events="none"/><path d="M 273 26 L 273 0 L 433 0 L 433 26" fill="#dae8fc" stroke="#6c8ebf" stroke-miterlimit="10" pointer-events="none"/><path d="M 273 26 L 273 143 L 433 143 L 433 26" fill="none" stroke="#6c8ebf" stroke-miterlimit="10" pointer-events="none"/><path d="M 273 26 L 433 26" fill="none" stroke="#6c8ebf" stroke-miterlimit="10" pointer-events="none"/><g fill="rgb(0, 0, 0)" font-family="Helvetica" font-weight="bold" pointer-events="none" text-anchor="middle" font-size="12px"><text x="352.5" y="17.5">Frontend</text></g><g fill="rgb(0, 0, 0)" font-family="Helvetica" pointer-events="none" clip-path="url(#mx-clip-277-31-152-26-0)" text-anchor="middle" font-size="12px"><text x="352.5" y="43.5">&lt;&lt;supporting&gt;&gt;</text></g><path d="M 273 56 L 433 56" fill="none" stroke="#6c8ebf" stroke-miterlimit="10" pointer-events="none"/><g fill="rgb(0, 0, 0)" font-family="Helvetica" pointer-events="none" clip-path="url(#mx-clip-277-65-152-83-0)" font-size="12px"><text x="278.5" y="77.5">The frontend in which </text><text x="278.5" y="91.5">visualizations, risk, and ROI</text><text x="278.5" y="105.5">of the investments and </text><text x="278.5" y="119.5">possible new investments</text><text x="278.5" y="133.5">are presented</text></g></g></svg>